# xmcd CD database file
#
# Track frame offsets:
#	180
#	20696
#	38617
#	52689
#	71547
#	88729
#	107874
#	120206
#	134588
#	136314
#	156845
#	174748
#	188754
#	207516
#	224700
#	243632
#	255904
#
# Disc length: 3604 seconds
#
# Revision: 0
# Processed by: cddbd v1.5.2PL0 Copyright (c) Steve Scherf et al.
# Submitted via: CDex 1.70beta2
#
DISCID=f40e1211
DTITLE=Music Minus One - Play-Along - BLUESAXE
DYEAR=1900
DGENRE=Jazz
TTITLE0=Tricky Dicky (complete)
TTITLE1=When The Spirit (complete)
TTITLE2=Cocaine Stomp (complete)
TTITLE3=Wailer Blues (complete)
TTITLE4=Boogie Breakdown (complete)
TTITLE5=Tremblin' (complete)
TTITLE6=Yancey's Fancy (complete)
TTITLE7=Mad Dog Blues (complete)
TTITLE8=Piano Tuning Notes
TTITLE9=Tricky Dicky (minus Sax)
TTITLE10=When The Spirit (minus Sax)
TTITLE11=Cocaine Stomp (minus Sax)
TTITLE12=Wailer Blues (minus Sax)
TTITLE13=Boogie Breakdown (minus Sax)
TTITLE14=Tremblin' (minus Sax)
TTITLE15=Yancey's Fancy (minus Sax)
TTITLE16=Mad Dog Blues (minus Sax)
EXTD=
EXTT0=
EXTT1=
EXTT2=
EXTT3=
EXTT4=
EXTT5=
EXTT6=
EXTT7=
EXTT8=
EXTT9=
EXTT10=
EXTT11=
EXTT12=
EXTT13=
EXTT14=
EXTT15=
EXTT16=
PLAYORDER=
